<?xml version="1.0" encoding="UTF-8" standalone="no"?>
<!-- Created with Inkscape (http://www.inkscape.org/) -->
<svg
   xmlns:dc="http://purl.org/dc/elements/1.1/"
   xmlns:cc="http://web.resource.org/cc/"
   xmlns:rdf="http://www.w3.org/1999/02/22-rdf-syntax-ns#"
   xmlns:svg="http://www.w3.org/2000/svg"
   xmlns="http://www.w3.org/2000/svg"
   xmlns:sodipodi="http://sodipodi.sourceforge.net/DTD/sodipodi-0.dtd"
   xmlns:inkscape="http://www.inkscape.org/namespaces/inkscape"
   height="850"
   width="940.23999"
   id="svg2"
   sodipodi:version="0.32"
   inkscape:version="0.45.1"
   sodipodi:docbase="C:\"
   sodipodi:docname="jajko.svg"
   inkscape:output_extension="org.inkscape.output.svg.inkscape"
   version="1.0">
  <sodipodi:namedview
     id="base"
     pagecolor="#ffffff"
     bordercolor="#666666"
     borderopacity="1.0"
     inkscape:pageopacity="0.0"
     inkscape:pageshadow="2"
     inkscape:cx="507.27598"
     inkscape:cy="996.52019"
     inkscape:zoom="0.24748737"
     inkscape:document-units="px"
     inkscape:current-layer="layer1"
     inkscape:window-width="1024"
     inkscape:window-height="719"
     inkscape:window-x="-4"
     inkscape:window-y="-4"
     width="940.24px"
     height="850px" />
  <defs
     id="defs4">
    <filter
       id="filter3234"
       inkscape:collect="always">
      <feGaussianBlur
         stdDeviation="5.2032011"
         id="feGaussianBlur3236"
         inkscape:collect="always" />
    </filter>
    <filter
       id="filter4230"
       inkscape:collect="always">
      <feGaussianBlur
         stdDeviation="3.0121153"
         id="feGaussianBlur4232"
         inkscape:collect="always" />
    </filter>
    <filter
       id="filter5219"
       inkscape:collect="always">
      <feGaussianBlur
         stdDeviation="12.906334"
         id="feGaussianBlur5221"
         inkscape:collect="always" />
    </filter>
    <filter
       id="filter6250"
       inkscape:collect="always">
      <feGaussianBlur
         stdDeviation="14.668854"
         id="feGaussianBlur6252"
         inkscape:collect="always" />
    </filter>
  </defs>
  <metadata
     id="metadata7">
    <rdf:RDF>
      <cc:Work
         rdf:about="">
        <dc:format>image/svg+xml</dc:format>
        <dc:type
           rdf:resource="http://purl.org/dc/dcmitype/StillImage" />
      </cc:Work>
    </rdf:RDF>
  </metadata>
  <g
     inkscape:label="Warstwa 1"
     id="layer1"
     inkscape:groupmode="layer"
     transform="translate(117.76479,-49.670739)">
    <g
       id="g9466"
       transform="translate(8.0812204,32.243661)"
       inkscape:export-filename="C:\jajko.png"
       inkscape:export-xdpi="100.02"
       inkscape:export-ydpi="100.02">
      <path
         id="path4234"
         d="M 328.47845,41.728229 C 262.78369,42.028249 195.61761,72.752329 159.1347,128.41573 C 152.19921,138.70143 147.40104,150.16705 142.3847,161.47823 C 93.428849,157.57691 43.263029,175.40893 7.5096988,208.60323 C -13.182801,228.51335 -26.288751,258.54237 -19.084051,287.38448 C -16.492481,299.89844 -9.4169912,311.01029 -5.4590512,323.00948 C -3.8225912,334.10073 -13.318061,342.36712 -22.302801,346.79073 C -45.213151,360.25742 -73.872721,367.58034 -89.052801,391.13448 C -94.985231,401.14961 -95.665351,413.29569 -100.71278,423.77066 C -110.90284,454.9964 -101.75115,490.2159 -81.837781,515.62937 C -56.508621,550.21455 -17.536301,573.78054 24.384699,582.54073 C 45.760429,589.65667 57.725909,610.43128 66.072199,629.97823 C 79.022209,660.36011 87.665299,694.99541 113.97845,716.97823 C 123.76731,725.17689 136.31315,729.00646 145.79919,737.54953 C 210.2547,783.28364 296.94001,799.65045 372.54095,774.16573 C 417.38602,785.10418 447.08215,824.55994 488.3222,842.72823 C 505.16948,850.21449 524.1191,853.68588 542.50668,851.46217 C 605.24792,856.2048 668.50036,827.26373 707.05881,778.05645 C 734.95742,743.45715 750.85424,699.31422 751.0722,654.82198 C 755.63472,619.43422 742.04374,585.37656 734.16595,551.60323 C 729.89156,532.61981 728.31757,509.75497 742.29095,494.29073 C 749.2054,485.40035 759.56562,480.82378 768.38586,474.38062 C 791.54721,452.47818 803.71679,420.39173 805.30314,388.72917 C 808.1636,324.96614 775.5402,262.39335 724.72845,225.16573 C 672.70145,187.2669 607.54971,169.00581 543.29095,170.60323 C 521.64254,114.42481 470.6338,73.754719 414.54095,54.915729 C 386.92151,45.457669 357.68003,41.111219 328.47845,41.728229 z "
         style="fill:#000000;fill-opacity:1;fill-rule:nonzero;stroke:none;stroke-width:0.30000001;stroke-linecap:round;stroke-miterlimit:4;stroke-dasharray:none;stroke-opacity:1;filter:url(#filter5219)" />
      <path
         d="M 321.64102,45.380469 C 321.63775,45.044749 323.37413,44.695469 326.77907,44.333919 C 330.23939,43.966489 335.5437,43.735549 342.38646,43.836499 C 349.3208,43.938789 358.1823,44.647369 368.33039,46.022949 C 378.59389,47.414169 390.97023,50.004839 403.89835,54.163189 C 416.9512,58.361669 431.901,64.390679 446.75787,72.303969 C 461.70541,80.265559 478.30501,91.739969 492.54357,105.68298 C 506.85746,119.69977 521.36976,138.75167 531.20019,159.4202 C 541.05861,180.14757 565.7276,166.56908 591.06461,170.56495 C 616.4232,174.56421 644.81314,181.98979 670.43997,193.76138 C 696.03898,205.52019 723.92853,223.19737 745.16042,245.1241 C 766.37006,267.02785 784.79365,299.31764 793.4008,330.82737 C 801.99549,362.29154 802.68381,404.5122 788.66052,436.15699 C 774.71653,467.62286 732.39392,479.61741 727.07684,515.44643 C 721.79025,551.07 742.01173,583.48111 746.67246,620.82646 C 751.29097,657.83349 744.26591,703.35203 727.38862,738.2025 C 710.69349,772.67683 679.475,808.03388 645.27891,827.89434 C 611.58649,847.46228 566.20487,852.78813 526.23594,854.7303 C 486.88668,856.64237 445.83033,826.69243 413.18495,803.10425 C 380.53883,779.51554 349.03335,785.19416 309.75299,788.22141 C 269.83371,791.29791 224.72426,783.8273 188.58071,769.22381 C 151.95339,754.42485 109.84568,733.23415 86.855459,702.64499 C 63.603779,671.70794 59.931499,630.17775 36.648449,601.07051 C 13.140789,571.68245 -28.962161,573.80626 -57.734831,552.14333 C -86.683101,530.34818 -114.37687,492.5575 -117.43727,458.26604 C -120.51397,423.79315 -101.61174,378.63175 -73.472651,362.14405 C -45.253471,345.60942 -7.2189112,340.51922 -20.108421,312.84854 C -33.008901,285.1543 -33.119511,244.43994 -16.937301,221.34965 C -0.77264121,198.28441 26.796329,180.80236 50.609479,171.28944 C 74.397679,161.78648 101.77238,156.67013 124.6683,157.82809 C 147.53111,158.98437 144.53809,133.15408 156.60896,117.15939 C 168.61157,101.25513 184.14867,87.953059 198.141,78.415029 C 212.05308,68.931689 226.91197,61.990999 239.68951,57.006589 C 252.3513,52.067329 264.72169,49.197619 274.90203,47.251989 C 284.9725,45.327369 293.94838,44.501919 300.88487,44.273079 C 307.71919,44.047609 313.01927,44.131589 316.48408,44.432519 C 319.89518,44.728799 321.63785,45.044749 321.64102,45.380469 C 321.64418,45.716199 319.90769,46.064949 316.50264,46.425479 C 313.0422,46.791859 307.98023,47.356879 301.19271,48.230429 C 294.31434,49.115669 286.1265,50.477169 276.20688,53.022109 C 266.17445,55.595989 255.14708,58.697379 242.73426,64.206299 C 230.20168,69.768359 217.32833,76.296349 203.76657,86.267349 C 190.12205,96.299189 177.39721,107.62793 165.85563,123.87399 C 154.25299,140.206 147.10065,171.5425 124.22182,170.92977 C 101.27786,170.3153 79.791529,174.90249 56.165299,184.88881 C 32.518949,194.88362 12.097769,207.257 -3.6992912,230.61689 C -19.479221,253.95142 -17.549451,277.89787 -4.2763412,305.37968 C 8.9828588,332.83269 -35.853821,361.35632 -63.840131,378.19741 C -91.785961,395.01414 -101.14576,421.88821 -97.736351,456.33222 C -94.346221,490.58147 -74.536401,513.91288 -45.428811,535.47466 C -16.488141,556.9128 29.626459,558.26724 53.312469,587.51232 C 76.783889,616.49246 81.044009,658.44635 104.44602,689.29594 C 127.59545,719.81259 160.33572,733.65577 197.0438,748.36269 C 233.21123,762.85299 268.09597,768.65191 307.98957,765.51951 C 347.26467,762.43567 393.92597,760.98965 426.57135,784.57783 C 459.21747,808.16654 485.797,833.84145 525.14983,831.9861 C 565.14277,830.10057 600.29016,827.85733 634.05704,808.37792 C 668.2759,788.63778 690.6802,762.94667 707.51218,728.58133 C 724.53559,693.82517 729.75164,660.55005 725.36024,623.53462 C 720.92647,586.16209 701.01463,548.01935 706.57863,512.43816 C 712.17659,476.63981 756.31707,459.46192 770.56867,428.12195 C 784.89567,396.61616 783.55942,367.29863 775.33389,335.73783 C 767.08495,304.0872 753.39975,279.41344 732.47279,257.18693 C 711.52801,234.9415 688.8819,220.5311 663.45817,208.3355 C 638.06203,196.15313 614.07323,189.0694 588.7439,185.07026 C 563.44111,181.07532 528.67314,185.8955 519.32089,164.96445 C 509.98216,144.06368 498.37137,128.19069 484.46396,113.76427 C 470.63518,99.419429 456.76494,89.261819 442.11215,80.773019 C 427.54338,72.332909 414.22495,66.354019 401.37412,61.561509 C 388.63972,56.812419 377.53171,53.888869 367.36763,51.859909 C 357.31324,49.852849 349.02668,48.557679 342.12819,47.797389 C 335.3313,47.048299 330.26312,46.626749 326.79823,46.326859 C 323.38705,46.031619 321.64428,45.716189 321.64102,45.380469 C 321.64102,45.380469 321.64102,45.380469 321.64102,45.380469"
         id="path9394"
         style="fill:#000000;fill-opacity:1;fill-rule:nonzero;stroke:none;stroke-width:0.30000001;stroke-linecap:round;stroke-miterlimit:4;stroke-opacity:1" />
      <path
         id="path2160"
         d="M 322.69276,41.857689 C 243.67111,41.182139 163.51612,86.116149 138.85462,162.04519 C 62.665699,150.67348 -60.754901,216.2396 -11.776651,304.25088 C 15.652319,358.60553 -93.638651,348.61678 -97.881911,407.38432 C -133.97517,479.96972 -55.714141,556.21649 14.436059,569.72024 C 79.630999,587.58167 62.161309,691.68795 129.54358,717.8027 C 195.6343,770.68483 287.63697,788.72767 364.16438,761.91014 C 426.27361,774.94668 464.36231,848.64188 533.9109,839.14963 C 643.01252,848.31807 737.68837,756.25298 736.69062,648.25719 C 748.03444,580.25125 675.24332,505.25084 754.88803,465.66509 C 822.45613,400.39859 789.51471,278.44572 713.69279,224.64995 C 661.04882,185.38505 594.32508,168.39478 531.16268,170.70144 C 501.10168,86.516099 406.14206,39.504049 322.69276,41.857689 z "
         style="fill:#fffffa;fill-opacity:1;fill-rule:nonzero;stroke:none;stroke-width:0.30000001;stroke-linecap:round;stroke-miterlimit:4;stroke-dasharray:none;stroke-opacity:1" />
      <path
         sodipodi:ry="182.85715"
         sodipodi:rx="182.85715"
         transform="matrix(0.9064293,0,0,0.7814293,810.56948,149.25408)"
         d="M -300 372.36218 A 182.85715 182.85715 0 1 1  -665.71429,372.36218 A 182.85715 182.85715 0 1 1  -300 372.36218 z"
         sodipodi:type="arc"
         sodipodi:cy="372.36218"
         sodipodi:cx="-482.85715"
         id="path5223"
         style="fill:#c0c0c0;fill-opacity:1;fill-rule:nonzero;stroke:none;stroke-width:0.30000001;stroke-linecap:round;stroke-miterlimit:4;stroke-dasharray:none;stroke-opacity:1;filter:url(#filter6250)" />
      <path
         sodipodi:ry="182.85715"
         sodipodi:rx="182.85715"
         transform="matrix(0.9064293,0,0,0.7814293,802.56948,141.25408)"
         d="M -300 372.36218 A 182.85715 182.85715 0 1 1  -665.71429,372.36218 A 182.85715 182.85715 0 1 1  -300 372.36218 z"
         sodipodi:type="arc"
         sodipodi:cy="372.36218"
         sodipodi:cx="-482.85715"
         id="path2199"
         style="fill:#ffba00;fill-opacity:1;fill-rule:nonzero;stroke:none;stroke-width:0.30000001;stroke-linecap:round;stroke-miterlimit:4;stroke-dasharray:none;stroke-opacity:1" />
      <path
         id="path2236"
         d="M 359.85345,298.82198 C 304.56608,299.43193 248.78106,328.3894 221.41595,377.41573 C 195.85724,422.41438 206.31109,483.03879 242.54095,519.16573 C 220.59524,479.62886 219.13401,428.42071 242.1972,388.94698 C 271.09425,336.76232 329.73543,305.3717 388.66281,302.99126 C 393.49218,302.75879 398.33221,302.69322 403.16595,302.82198 C 388.96916,299.77121 374.40847,298.448 359.85345,298.82198 z "
         style="opacity:0.64220186;fill:#f5f5f5;fill-opacity:1;fill-rule:nonzero;stroke:none;stroke-width:0.30000001;stroke-linecap:round;stroke-miterlimit:4;stroke-dasharray:none;stroke-opacity:1;filter:url(#filter3234)" />
      <path
         d="M 724.2597,235.63448 C 750.03094,276.82414 773.952,321.55399 778.26372,370.78852 C 781.28306,402.9935 770.67371,436.38747 747.79095,459.29073 C 734.67685,473.24727 714.81497,483.47118 711.3222,503.97823 C 706.17178,534.03929 720.98199,562.41285 724.87826,591.65445 C 735.06598,655.97008 718.0551,726.32423 672.16595,773.60323 C 639.98943,807.37593 592.90903,825.33878 546.35345,823.44698 C 487.20084,821.53595 432.08326,794.69341 384.53099,761.32632 C 296.30759,761.84263 219.79389,766.30949 187.5097,750.41573 C 242.41551,774.6758 307.00039,779.92689 364.04095,759.85323 C 402.17902,767.746 430.40859,797.09588 462.10345,817.47823 C 483.18821,831.66427 508.43408,841.09383 534.0722,837.13448 C 595.41455,842.87325 657.30559,813.29133 694.41595,765.00948 C 720.79694,731.65873 735.23411,689.42379 734.88644,646.95954 C 741.17594,603.95963 716.59362,564.40063 715.11248,521.94723 C 714.13432,502.40192 723.70233,483.26817 739.86349,472.33553 C 746.94478,467.02596 755.75366,464.1319 760.79095,456.50948 C 790.24198,422.81548 795.29625,374.1008 783.9472,332.00948 C 774.2075,294.83194 753.32359,260.36282 724.0097,235.22823 L 724.2597,235.63448 z "
         sodipodi:nodetypes="cccccccccccccccccccc"
         id="path3240"
         style="opacity:0.52293581;fill:#808080;fill-opacity:1;fill-rule:nonzero;stroke:none;stroke-width:0.30000001;stroke-linecap:round;stroke-miterlimit:4;stroke-dasharray:none;stroke-opacity:1;filter:url(#filter4230)" />
    </g>
  </g>
</svg>
